{
  "asset" : {
    "generator" : "UE Viewer (umodel) build 1579 based",
    "version" : "2.0"
  },
  "scene" : 0,
  "scenes" : [
    {
      "nodes" : [ 0 ]
    }
  ],
  "nodes" : [
    {
      "name" : "SM_crystal_08_zr",
      "mesh" : 0,
      "skin" : 0,
      "children" : [ 1 ]
    },
    {
      "name" : "Bone001",
      "translation" : [ 0, 0, -2.13447e-08 ],
      "rotation" : [ 0.707094, -0.00424921, -0.00424921, 0.707094 ]
    }
  ],
  "skins" : [
    {
      "inverseBindMatrices" : 0,
      "skeleton" : 1,
      "joints" : [
        1
      ]
    }
  ],
  "materials" : [
    {
      "name" : "dummy_material_0",
      "pbrMetallicRoughness" : {
        "baseColorFactor" : [ 0.3, 0.3, 0.3, 1.0 ],
        "metallicFactor" : 0.1,
        "roughnessFactor" : 0.5
      }
    }
  ],
  "meshes" : [
    {
      "primitives" : [
        {
          "attributes" : {
            "POSITION" : 2,
            "NORMAL" : 3,
            "TANGENT" : 4,
            "JOINTS_0" : 5,
            "WEIGHTS_0" : 6,
            "TEXCOORD_0" : 7,
            "TEXCOORD_1" : 8
          },
          "indices" : 1,
          "material" : 0
        }
      ],
      "name" : "SM_crystal_08_zr"
    }
  ],
  "buffers" : [
    {
      "uri" : "SM_crystal_08_zr.bin",
      "byteLength" : 78292
    }
  ],
  "bufferViews" : [
    {
      "buffer" : 0,
      "byteOffset" : 0,
      "byteLength" : 64
    },
    {
      "buffer" : 0,
      "byteOffset" : 64,
      "byteLength" : 5400
    },
    {
      "buffer" : 0,
      "byteOffset" : 5464,
      "byteLength" : 12852
    },
    {
      "buffer" : 0,
      "byteOffset" : 18316,
      "byteLength" : 12852
    },
    {
      "buffer" : 0,
      "byteOffset" : 31168,
      "byteLength" : 17136
    },
    {
      "buffer" : 0,
      "byteOffset" : 48304,
      "byteLength" : 8568
    },
    {
      "buffer" : 0,
      "byteOffset" : 56872,
      "byteLength" : 4284
    },
    {
      "buffer" : 0,
      "byteOffset" : 61156,
      "byteLength" : 8568
    },
    {
      "buffer" : 0,
      "byteOffset" : 69724,
      "byteLength" : 8568
    }
  ],
  "accessors" : [
    {
      "bufferView" : 0,
      "componentType" : 5126,
      "count" : 1,
      "type" : "MAT4"
    },
    {
      "bufferView" : 1,
      "componentType" : 5123,
      "count" : 2700,
      "type" : "SCALAR"
    },
    {
      "bufferView" : 2,
      "min" : [ -1.01253, -0.299371, -1.29075 ],
      "max" : [ 1.01253, 2.03771, 1.29075 ],
      "componentType" : 5126,
      "count" : 1071,
      "type" : "VEC3"
    },
    {
      "bufferView" : 3,
      "componentType" : 5126,
      "count" : 1071,
      "type" : "VEC3"
    },
    {
      "bufferView" : 4,
      "componentType" : 5126,
      "count" : 1071,
      "type" : "VEC4"
    },
    {
      "bufferView" : 5,
      "componentType" : 5123,
      "count" : 1071,
      "type" : "VEC4"
    },
    {
      "bufferView" : 6,
      "normalized" : true,
      "componentType" : 5121,
      "count" : 1071,
      "type" : "VEC4"
    },
    {
      "bufferView" : 7,
      "componentType" : 5126,
      "count" : 1071,
      "type" : "VEC2"
    },
    {
      "bufferView" : 8,
      "componentType" : 5126,
      "count" : 1071,
      "type" : "VEC2"
    }
  ]
}
