{
  "asset" : {
    "generator" : "UE Viewer (umodel) build 1579 based",
    "version" : "2.0"
  },
  "scene" : 0,
  "scenes" : [
    {
      "nodes" : [ 0 ]
    }
  ],
  "nodes" : [
    {
      "name" : "SM_jiuyu_shidenglong",
      "mesh" : 0,
      "skin" : 0,
      "children" : [ 1 ]
    },
    {
      "name" : "Bone001",
      "translation" : [ 0, 0, 9.27777e-09 ],
      "rotation" : [ 0.707105, 0.00166766, 0.00166766, 0.707105 ]
    }
  ],
  "skins" : [
    {
      "inverseBindMatrices" : 0,
      "skeleton" : 1,
      "joints" : [
        1
      ]
    }
  ],
  "materials" : [
    {
      "name" : "dummy_material_0",
      "pbrMetallicRoughness" : {
        "baseColorFactor" : [ 0.3, 0.3, 0.3, 1.0 ],
        "metallicFactor" : 0.1,
        "roughnessFactor" : 0.5
      }
    }
  ],
  "meshes" : [
    {
      "primitives" : [
        {
          "attributes" : {
            "POSITION" : 2,
            "NORMAL" : 3,
            "TANGENT" : 4,
            "JOINTS_0" : 5,
            "WEIGHTS_0" : 6,
            "TEXCOORD_0" : 7,
            "TEXCOORD_1" : 8
          },
          "indices" : 1,
          "material" : 0
        }
      ],
      "name" : "SM_jiuyu_shidenglong"
    }
  ],
  "buffers" : [
    {
      "uri" : "SM_jiuyu_shidenglong.bin",
      "byteLength" : 116880
    }
  ],
  "bufferViews" : [
    {
      "buffer" : 0,
      "byteOffset" : 0,
      "byteLength" : 64
    },
    {
      "buffer" : 0,
      "byteOffset" : 64,
      "byteLength" : 7608
    },
    {
      "buffer" : 0,
      "byteOffset" : 7672,
      "byteLength" : 19272
    },
    {
      "buffer" : 0,
      "byteOffset" : 26944,
      "byteLength" : 19272
    },
    {
      "buffer" : 0,
      "byteOffset" : 46216,
      "byteLength" : 25696
    },
    {
      "buffer" : 0,
      "byteOffset" : 71912,
      "byteLength" : 12848
    },
    {
      "buffer" : 0,
      "byteOffset" : 84760,
      "byteLength" : 6424
    },
    {
      "buffer" : 0,
      "byteOffset" : 91184,
      "byteLength" : 12848
    },
    {
      "buffer" : 0,
      "byteOffset" : 104032,
      "byteLength" : 12848
    }
  ],
  "accessors" : [
    {
      "bufferView" : 0,
      "componentType" : 5126,
      "count" : 1,
      "type" : "MAT4"
    },
    {
      "bufferView" : 1,
      "componentType" : 5123,
      "count" : 3804,
      "type" : "SCALAR"
    },
    {
      "bufferView" : 2,
      "min" : [ -0.425315, -3.00011e-17, -0.425315 ],
      "max" : [ 0.425315, 1.65911, 0.425315 ],
      "componentType" : 5126,
      "count" : 1606,
      "type" : "VEC3"
    },
    {
      "bufferView" : 3,
      "componentType" : 5126,
      "count" : 1606,
      "type" : "VEC3"
    },
    {
      "bufferView" : 4,
      "componentType" : 5126,
      "count" : 1606,
      "type" : "VEC4"
    },
    {
      "bufferView" : 5,
      "componentType" : 5123,
      "count" : 1606,
      "type" : "VEC4"
    },
    {
      "bufferView" : 6,
      "normalized" : true,
      "componentType" : 5121,
      "count" : 1606,
      "type" : "VEC4"
    },
    {
      "bufferView" : 7,
      "componentType" : 5126,
      "count" : 1606,
      "type" : "VEC2"
    },
    {
      "bufferView" : 8,
      "componentType" : 5126,
      "count" : 1606,
      "type" : "VEC2"
    }
  ]
}
