{
  "asset" : {
    "generator" : "UE Viewer (umodel) build 1579 based",
    "version" : "2.0"
  },
  "scene" : 0,
  "scenes" : [
    {
      "nodes" : [ 0 ]
    }
  ],
  "nodes" : [
    {
      "name" : "SM_river_bank_01_ZR",
      "mesh" : 0,
      "skin" : 0,
      "children" : [ 1 ]
    },
    {
      "name" : "Bone001",
      "translation" : [ 0, 0, -7.30474e-09 ],
      "rotation" : [ 0.707106, 0.00114875, 0.00114875, 0.707106 ]
    }
  ],
  "skins" : [
    {
      "inverseBindMatrices" : 0,
      "skeleton" : 1,
      "joints" : [
        1
      ]
    }
  ],
  "materials" : [
    {
      "name" : "dummy_material_0",
      "pbrMetallicRoughness" : {
        "baseColorFactor" : [ 0.3, 0.3, 0.3, 1.0 ],
        "metallicFactor" : 0.1,
        "roughnessFactor" : 0.5
      }
    }
  ],
  "meshes" : [
    {
      "primitives" : [
        {
          "attributes" : {
            "POSITION" : 2,
            "NORMAL" : 3,
            "TANGENT" : 4,
            "JOINTS_0" : 5,
            "WEIGHTS_0" : 6,
            "TEXCOORD_0" : 7,
            "TEXCOORD_1" : 8
          },
          "indices" : 1,
          "material" : 0
        }
      ],
      "name" : "SM_river_bank_01_ZR"
    }
  ],
  "buffers" : [
    {
      "uri" : "SM_river_bank_01_ZR.bin",
      "byteLength" : 128032
    }
  ],
  "bufferViews" : [
    {
      "buffer" : 0,
      "byteOffset" : 0,
      "byteLength" : 64
    },
    {
      "buffer" : 0,
      "byteOffset" : 64,
      "byteLength" : 15020
    },
    {
      "buffer" : 0,
      "byteOffset" : 15084,
      "byteLength" : 19932
    },
    {
      "buffer" : 0,
      "byteOffset" : 35016,
      "byteLength" : 19932
    },
    {
      "buffer" : 0,
      "byteOffset" : 54948,
      "byteLength" : 26576
    },
    {
      "buffer" : 0,
      "byteOffset" : 81524,
      "byteLength" : 13288
    },
    {
      "buffer" : 0,
      "byteOffset" : 94812,
      "byteLength" : 6644
    },
    {
      "buffer" : 0,
      "byteOffset" : 101456,
      "byteLength" : 13288
    },
    {
      "buffer" : 0,
      "byteOffset" : 114744,
      "byteLength" : 13288
    }
  ],
  "accessors" : [
    {
      "bufferView" : 0,
      "componentType" : 5126,
      "count" : 1,
      "type" : "MAT4"
    },
    {
      "bufferView" : 1,
      "componentType" : 5123,
      "count" : 7509,
      "type" : "SCALAR"
    },
    {
      "bufferView" : 2,
      "min" : [ -1.67363, -0.04343, -1.29935 ],
      "max" : [ 1.67363, 1.12368, 1.29935 ],
      "componentType" : 5126,
      "count" : 1661,
      "type" : "VEC3"
    },
    {
      "bufferView" : 3,
      "componentType" : 5126,
      "count" : 1661,
      "type" : "VEC3"
    },
    {
      "bufferView" : 4,
      "componentType" : 5126,
      "count" : 1661,
      "type" : "VEC4"
    },
    {
      "bufferView" : 5,
      "componentType" : 5123,
      "count" : 1661,
      "type" : "VEC4"
    },
    {
      "bufferView" : 6,
      "normalized" : true,
      "componentType" : 5121,
      "count" : 1661,
      "type" : "VEC4"
    },
    {
      "bufferView" : 7,
      "componentType" : 5126,
      "count" : 1661,
      "type" : "VEC2"
    },
    {
      "bufferView" : 8,
      "componentType" : 5126,
      "count" : 1661,
      "type" : "VEC2"
    }
  ]
}
