{
  "asset" : {
    "generator" : "UE Viewer (umodel) build 1579 based",
    "version" : "2.0"
  },
  "scene" : 0,
  "scenes" : [
    {
      "nodes" : [ 0 ]
    }
  ],
  "nodes" : [
    {
      "name" : "SM_seabed_Coral_E_lb",
      "mesh" : 0,
      "skin" : 0,
      "children" : [ 1 ]
    },
    {
      "name" : "Bone001",
      "translation" : [ 0, 0, -4.94431e-09 ],
      "rotation" : [ 0.707102, 0.00266823, 0.00266823, 0.707102 ]
    }
  ],
  "skins" : [
    {
      "inverseBindMatrices" : 0,
      "skeleton" : 1,
      "joints" : [
        1
      ]
    }
  ],
  "materials" : [
    {
      "name" : "dummy_material_0",
      "pbrMetallicRoughness" : {
        "baseColorFactor" : [ 0.3, 0.3, 0.3, 1.0 ],
        "metallicFactor" : 0.1,
        "roughnessFactor" : 0.5
      }
    }
  ],
  "meshes" : [
    {
      "primitives" : [
        {
          "attributes" : {
            "POSITION" : 2,
            "NORMAL" : 3,
            "TANGENT" : 4,
            "JOINTS_0" : 5,
            "WEIGHTS_0" : 6,
            "TEXCOORD_0" : 7,
            "TEXCOORD_1" : 8
          },
          "indices" : 1,
          "material" : 0
        }
      ],
      "name" : "SM_seabed_Coral_E_lb"
    }
  ],
  "buffers" : [
    {
      "uri" : "SM_seabed_Coral_E_lb.bin",
      "byteLength" : 384432
    }
  ],
  "bufferViews" : [
    {
      "buffer" : 0,
      "byteOffset" : 0,
      "byteLength" : 64
    },
    {
      "buffer" : 0,
      "byteOffset" : 64,
      "byteLength" : 36888
    },
    {
      "buffer" : 0,
      "byteOffset" : 36952,
      "byteLength" : 61320
    },
    {
      "buffer" : 0,
      "byteOffset" : 98272,
      "byteLength" : 61320
    },
    {
      "buffer" : 0,
      "byteOffset" : 159592,
      "byteLength" : 81760
    },
    {
      "buffer" : 0,
      "byteOffset" : 241352,
      "byteLength" : 40880
    },
    {
      "buffer" : 0,
      "byteOffset" : 282232,
      "byteLength" : 20440
    },
    {
      "buffer" : 0,
      "byteOffset" : 302672,
      "byteLength" : 40880
    },
    {
      "buffer" : 0,
      "byteOffset" : 343552,
      "byteLength" : 40880
    }
  ],
  "accessors" : [
    {
      "bufferView" : 0,
      "componentType" : 5126,
      "count" : 1,
      "type" : "MAT4"
    },
    {
      "bufferView" : 1,
      "componentType" : 5123,
      "count" : 18444,
      "type" : "SCALAR"
    },
    {
      "bufferView" : 2,
      "min" : [ -2.19359, -0.471313, -2.56061 ],
      "max" : [ 2.19359, 2.202, 2.56061 ],
      "componentType" : 5126,
      "count" : 5110,
      "type" : "VEC3"
    },
    {
      "bufferView" : 3,
      "componentType" : 5126,
      "count" : 5110,
      "type" : "VEC3"
    },
    {
      "bufferView" : 4,
      "componentType" : 5126,
      "count" : 5110,
      "type" : "VEC4"
    },
    {
      "bufferView" : 5,
      "componentType" : 5123,
      "count" : 5110,
      "type" : "VEC4"
    },
    {
      "bufferView" : 6,
      "normalized" : true,
      "componentType" : 5121,
      "count" : 5110,
      "type" : "VEC4"
    },
    {
      "bufferView" : 7,
      "componentType" : 5126,
      "count" : 5110,
      "type" : "VEC2"
    },
    {
      "bufferView" : 8,
      "componentType" : 5126,
      "count" : 5110,
      "type" : "VEC2"
    }
  ]
}
