{
  "asset" : {
    "generator" : "UE Viewer (umodel) build 1579 based",
    "version" : "2.0"
  },
  "scene" : 0,
  "scenes" : [
    {
      "nodes" : [ 0 ]
    }
  ],
  "nodes" : [
    {
      "name" : "SM_seabed_Coral_G_lb",
      "mesh" : 0,
      "skin" : 0,
      "children" : [ 1 ]
    },
    {
      "name" : "Bone001",
      "translation" : [ 0, 0, -8.11007e-09 ],
      "rotation" : [ 0.707107, -0, -0, 0.707107 ]
    }
  ],
  "skins" : [
    {
      "inverseBindMatrices" : 0,
      "skeleton" : 1,
      "joints" : [
        1
      ]
    }
  ],
  "materials" : [
    {
      "name" : "dummy_material_0",
      "pbrMetallicRoughness" : {
        "baseColorFactor" : [ 0.3, 0.3, 0.3, 1.0 ],
        "metallicFactor" : 0.1,
        "roughnessFactor" : 0.5
      }
    }
  ],
  "meshes" : [
    {
      "primitives" : [
        {
          "attributes" : {
            "POSITION" : 2,
            "NORMAL" : 3,
            "TANGENT" : 4,
            "JOINTS_0" : 5,
            "WEIGHTS_0" : 6,
            "TEXCOORD_0" : 7,
            "TEXCOORD_1" : 8
          },
          "indices" : 1,
          "material" : 0
        }
      ],
      "name" : "SM_seabed_Coral_G_lb"
    }
  ],
  "buffers" : [
    {
      "uri" : "SM_seabed_Coral_G_lb.bin",
      "byteLength" : 189748
    }
  ],
  "bufferViews" : [
    {
      "buffer" : 0,
      "byteOffset" : 0,
      "byteLength" : 64
    },
    {
      "buffer" : 0,
      "byteOffset" : 64,
      "byteLength" : 18324
    },
    {
      "buffer" : 0,
      "byteOffset" : 18388,
      "byteLength" : 30240
    },
    {
      "buffer" : 0,
      "byteOffset" : 48628,
      "byteLength" : 30240
    },
    {
      "buffer" : 0,
      "byteOffset" : 78868,
      "byteLength" : 40320
    },
    {
      "buffer" : 0,
      "byteOffset" : 119188,
      "byteLength" : 20160
    },
    {
      "buffer" : 0,
      "byteOffset" : 139348,
      "byteLength" : 10080
    },
    {
      "buffer" : 0,
      "byteOffset" : 149428,
      "byteLength" : 20160
    },
    {
      "buffer" : 0,
      "byteOffset" : 169588,
      "byteLength" : 20160
    }
  ],
  "accessors" : [
    {
      "bufferView" : 0,
      "componentType" : 5126,
      "count" : 1,
      "type" : "MAT4"
    },
    {
      "bufferView" : 1,
      "componentType" : 5123,
      "count" : 9162,
      "type" : "SCALAR"
    },
    {
      "bufferView" : 2,
      "min" : [ -1.60178, -0.328985, -1.83219 ],
      "max" : [ 1.60146, 1.80094, 1.83229 ],
      "componentType" : 5126,
      "count" : 2520,
      "type" : "VEC3"
    },
    {
      "bufferView" : 3,
      "componentType" : 5126,
      "count" : 2520,
      "type" : "VEC3"
    },
    {
      "bufferView" : 4,
      "componentType" : 5126,
      "count" : 2520,
      "type" : "VEC4"
    },
    {
      "bufferView" : 5,
      "componentType" : 5123,
      "count" : 2520,
      "type" : "VEC4"
    },
    {
      "bufferView" : 6,
      "normalized" : true,
      "componentType" : 5121,
      "count" : 2520,
      "type" : "VEC4"
    },
    {
      "bufferView" : 7,
      "componentType" : 5126,
      "count" : 2520,
      "type" : "VEC2"
    },
    {
      "bufferView" : 8,
      "componentType" : 5126,
      "count" : 2520,
      "type" : "VEC2"
    }
  ]
}
